<svg width="34" height="34" viewBox="0 0 34 34" fill="none" xmlns="http://www.w3.org/2000/svg">
<path d="M29.75 2.125H4.25C3.68641 2.125 3.14591 2.34888 2.7474 2.7474C2.34888 3.14591 2.125 3.68641 2.125 4.25V28.6875C2.125 29.2511 2.34888 29.7916 2.7474 30.1901C3.14591 30.5886 3.68641 30.8125 4.25 30.8125H12.1444C12.254 31.1225 12.4568 31.391 12.725 31.5813C12.9932 31.7715 13.3137 31.8741 13.6425 31.875H20.3575C20.6863 31.8741 21.0068 31.7715 21.275 31.5813C21.5432 31.391 21.746 31.1225 21.8556 30.8125H29.75C30.3136 30.8125 30.8541 30.5886 31.2526 30.1901C31.6511 29.7916 31.875 29.2511 31.875 28.6875V4.25C31.875 3.68641 31.6511 3.14591 31.2526 2.7474C30.8541 2.34888 30.3136 2.125 29.75 2.125ZM30.8125 4.25V8.5H3.1875V6.84781H11.6875C12.1102 6.84781 12.5156 6.6799 12.8145 6.38101C13.1133 6.08213 13.2812 5.67675 13.2812 5.25406V3.1875H29.75C30.0318 3.1875 30.302 3.29944 30.5013 3.4987C30.7006 3.69796 30.8125 3.96821 30.8125 4.25ZM16.4688 21.7812C16.0101 21.9096 15.6134 22.1997 15.3522 22.5979C15.0909 22.9962 14.9826 23.4755 15.0474 23.9474C15.1122 24.4192 15.3456 24.8516 15.7046 25.1647C16.0636 25.4777 16.5237 25.6502 17 25.6502C17.4763 25.6502 17.9364 25.4777 18.2954 25.1647C18.6544 24.8516 18.8878 24.4192 18.9526 23.9474C19.0174 23.4755 18.9091 22.9962 18.6478 22.5979C18.3866 22.1997 17.9899 21.9096 17.5312 21.7812V18.3812L20.5275 23.375C20.5954 23.4872 20.6377 23.6129 20.6515 23.7433C20.6653 23.8737 20.6501 24.0055 20.6072 24.1294L19.6137 27.0938H14.3862L13.3928 24.1028C13.3532 23.9829 13.3398 23.8558 13.3536 23.7302C13.3673 23.6047 13.4079 23.4835 13.4725 23.375L16.4688 18.3812V21.7812ZM29.75 29.75H21.9513V28.6875C21.9463 28.3314 21.8222 27.9873 21.5988 27.71C21.3754 27.4327 21.0656 27.2382 20.7188 27.1575L21.6166 24.4641C21.7063 24.1974 21.7371 23.9144 21.7069 23.6347C21.6766 23.3549 21.586 23.0851 21.4412 22.8438L18.0625 17.2231C17.9507 17.0419 17.7943 16.8922 17.6084 16.7885C17.4224 16.6847 17.213 16.6302 17 16.6302C16.787 16.6302 16.5776 16.6847 16.3916 16.7885C16.2057 16.8922 16.0493 17.0419 15.9375 17.2231L12.5588 22.8438C12.4119 23.0882 12.3201 23.3617 12.2899 23.6452C12.2596 23.9287 12.2915 24.2154 12.3834 24.4853L13.2812 27.1575C12.9344 27.2382 12.6246 27.4327 12.4012 27.71C12.1778 27.9873 12.0537 28.3314 12.0487 28.6875V29.75H4.25C3.96821 29.75 3.69796 29.6381 3.4987 29.4388C3.29944 29.2395 3.1875 28.9693 3.1875 28.6875V9.5625H30.8125V28.6875C30.8125 28.9693 30.7006 29.2395 30.5013 29.4388C30.302 29.6381 30.0318 29.75 29.75 29.75Z" fill="white"/>
<path d="M15.725 6.375H17.85C17.9909 6.375 18.126 6.31903 18.2256 6.2194C18.3253 6.11977 18.3812 5.98465 18.3812 5.84375C18.3812 5.70285 18.3253 5.56773 18.2256 5.4681C18.126 5.36847 17.9909 5.3125 17.85 5.3125H15.725C15.5841 5.3125 15.449 5.36847 15.3493 5.4681C15.2497 5.56773 15.1937 5.70285 15.1937 5.84375C15.1937 5.98465 15.2497 6.11977 15.3493 6.2194C15.449 6.31903 15.5841 6.375 15.725 6.375Z" fill="white"/>
<path d="M20.6125 6.375H22.7375C22.8784 6.375 23.0135 6.31903 23.1132 6.2194C23.2128 6.11977 23.2688 5.98465 23.2688 5.84375C23.2688 5.70285 23.2128 5.56773 23.1132 5.4681C23.0135 5.36847 22.8784 5.3125 22.7375 5.3125H20.6125C20.4716 5.3125 20.3365 5.36847 20.2369 5.4681C20.1372 5.56773 20.0813 5.70285 20.0813 5.84375C20.0813 5.98465 20.1372 6.11977 20.2369 6.2194C20.3365 6.31903 20.4716 6.375 20.6125 6.375Z" fill="white"/>
<path d="M25.5 6.375H27.625C27.7659 6.375 27.901 6.31903 28.0007 6.2194C28.1003 6.11977 28.1562 5.98465 28.1562 5.84375C28.1562 5.70285 28.1003 5.56773 28.0007 5.4681C27.901 5.36847 27.7659 5.3125 27.625 5.3125H25.5C25.3591 5.3125 25.224 5.36847 25.1243 5.4681C25.0247 5.56773 24.9688 5.70285 24.9688 5.84375C24.9688 5.98465 25.0247 6.11977 25.1243 6.2194C25.224 6.31903 25.3591 6.375 25.5 6.375Z" fill="white"/>
<path d="M27.1363 11.2413H25.1919C24.9223 11.2413 24.6636 11.348 24.4725 11.5382C24.2814 11.7283 24.1733 11.9864 24.1719 12.256V12.7022H19.125C19.0038 12.2307 18.7293 11.8129 18.3445 11.5146C17.9598 11.2162 17.4868 11.0543 17 11.0543C16.5132 11.0543 16.0402 11.2162 15.6555 11.5146C15.2707 11.8129 14.9962 12.2307 14.875 12.7022H9.82812V12.256C9.82672 11.9864 9.71864 11.7283 9.5275 11.5382C9.33637 11.348 9.07773 11.2413 8.80813 11.2413H6.86375C6.59415 11.2413 6.33551 11.348 6.14437 11.5382C5.95324 11.7283 5.84515 11.9864 5.84375 12.256V14.2057C5.84515 14.4753 5.95324 14.7333 6.14437 14.9235C6.33551 15.1136 6.59415 15.2204 6.86375 15.2204H8.80813C9.07773 15.2204 9.33637 15.1136 9.5275 14.9235C9.71864 14.7333 9.82672 14.4753 9.82812 14.2057V13.7647H12.9466C11.9849 14.3109 11.1428 15.0447 10.4702 15.9227C9.79762 16.8006 9.30828 17.8047 9.03125 18.8754C6.375 19.2579 6.57688 23.2104 9.31281 23.2582C9.82475 23.2549 10.3195 23.0731 10.7118 22.7442C11.1041 22.4153 11.3694 21.9598 11.4619 21.4563C11.5544 20.9528 11.4684 20.4328 11.2187 19.9859C10.9689 19.539 10.5711 19.1932 10.0938 19.0082C10.4239 17.8387 11.0448 16.7718 11.8984 15.907C12.7521 15.0422 13.8108 14.4075 14.9759 14.0622C15.1437 14.465 15.427 14.809 15.79 15.0511C16.1531 15.2931 16.5796 15.4222 17.0159 15.4222C17.4522 15.4222 17.8788 15.2931 18.2418 15.0511C18.6049 14.809 18.8881 14.465 19.0559 14.0622C20.2131 14.4143 21.2635 15.0511 22.1109 15.9142C22.9583 16.7774 23.5756 17.8393 23.9062 19.0029C23.405 19.1945 22.9911 19.5628 22.7425 20.0383C22.4939 20.5139 22.4278 21.064 22.5565 21.5849C22.6853 22.1059 23.0001 22.5618 23.4416 22.8668C23.8831 23.1718 24.4209 23.3049 24.9537 23.2409C25.4865 23.177 25.9776 22.9205 26.3344 22.5196C26.6912 22.1188 26.8892 21.6014 26.891 21.0648C26.8929 20.5282 26.6985 20.0094 26.3444 19.6061C25.9904 19.2029 25.5011 18.943 24.9688 18.8754C24.6898 17.8026 24.1974 16.7972 23.521 15.9191C22.8447 15.041 21.9982 14.3082 21.0322 13.7647H24.1719V14.2057C24.1733 14.4753 24.2814 14.7333 24.4725 14.9235C24.6636 15.1136 24.9223 15.2204 25.1919 15.2204H27.1363C27.4059 15.2204 27.6645 15.1136 27.8556 14.9235C28.0468 14.7333 28.1548 14.4753 28.1562 14.2057V12.256C28.1548 11.9864 28.0468 11.7283 27.8556 11.5382C27.6645 11.348 27.4059 11.2413 27.1363 11.2413Z" fill="white"/>
</svg>
