<svg width="34" height="34" viewBox="0 0 34 34" fill="none" xmlns="http://www.w3.org/2000/svg">
<g clip-path="url(#clip0_18_860)">
<path d="M33.083 7.28426C33.0676 7.04729 33.047 6.81032 33.0315 6.5682C33.0315 6.54244 33.0264 6.51154 33.0264 6.48578L33.0212 6.43426C32.8615 4.45093 31.5479 2.84366 29.8273 2.53457C27.7203 2.15335 25.5824 1.94214 23.4445 1.90608C20.5545 1.87517 17.5564 2.16366 13.7545 2.52426C13.3373 2.56547 12.9097 2.60669 12.4667 2.6479C10.7306 2.81275 9.29848 4.28608 8.98939 6.23851V6.24881C8.98939 6.25911 8.98424 6.26941 8.98424 6.28487L8.97909 6.31578C8.97393 6.33638 8.97393 6.36214 8.96878 6.3879L8.96363 6.43426C8.95848 6.47548 8.94818 6.52699 8.94303 6.57335C8.94303 6.58881 8.93787 6.59911 8.93787 6.61457L8.92242 6.7279C8.91727 6.75881 8.91212 6.78457 8.91212 6.79487V6.80002V6.80517C8.21666 11.3076 7.85606 15.0064 7.81999 18.0355C7.74787 17.9994 7.65515 17.9891 7.52636 18.0046C6.92363 18.0664 5.56878 18.6846 5.2803 19.0967C4.96606 19.5346 4.72393 21.93 4.68787 22.2803L3.79666 24.4749L3.5803 25.0364C3.56484 25.0827 3.54424 25.1291 3.52363 25.1755C3.42575 25.2373 3.34848 25.3094 3.29181 25.3867C3.27636 25.4073 3.26606 25.4279 3.25575 25.4485L2.2409 25.7885H2.23575L1.34454 26.0873C1.28787 26.1079 1.23121 26.1337 1.18484 26.1646C0.855146 26.3603 0.705752 26.7724 0.829388 27.1382L1.11787 28.0037C1.18484 28.2097 1.33939 28.3797 1.52999 28.4776C1.47333 28.6064 1.46302 28.6631 1.50424 28.7352C3.0909 31.6818 4.68272 32.6452 5.73363 32.9337C6.05302 33.0212 6.34151 33.0521 6.59393 33.0521C7.23272 33.0521 7.66545 32.8409 7.85606 32.7276C7.87666 32.7121 7.89212 32.6967 7.90242 32.6709L8.86575 30.5073L9.75697 28.56C9.76727 28.5394 9.79818 28.4827 9.81878 28.39C10.473 28.3437 10.6482 28.2818 10.7203 28.2355C11.493 27.7667 12.8994 25.6752 12.9818 25.2373C13.0024 25.124 12.9715 25.0158 12.8994 24.9127L13.5382 24.6964L27.4627 25.2837H27.4885L28.2458 25.3455C28.3333 25.3506 28.4261 25.3558 28.5136 25.3558C30.2291 25.3558 31.7848 23.9546 32.1918 21.9867C33.1345 17.4276 33.4385 12.477 33.083 7.28426ZM16.1912 4.91972C16.1912 5.27002 15.9336 5.55335 15.6194 5.55335C15.3051 5.55335 15.0476 5.27002 15.0476 4.91972C15.0476 4.56941 15.3051 4.28608 15.6194 4.28608C15.9336 4.28608 16.1912 4.56941 16.1912 4.91972ZM13.2239 4.91972C13.2239 4.56941 13.4815 4.28608 13.7958 4.28608C14.11 4.28608 14.3676 4.56941 14.3676 4.91972C14.3676 5.27002 14.11 5.55335 13.7958 5.55335C13.4815 5.55851 13.2239 5.27517 13.2239 4.91972ZM11.4003 4.91972C11.4003 4.56941 11.6579 4.28608 11.9721 4.28608C12.2864 4.28608 12.5439 4.56941 12.5439 4.91972C12.5439 5.27002 12.2864 5.55335 11.9721 5.55335C11.6579 5.55851 11.4003 5.27517 11.4003 4.91972ZM12.853 21.827C12.9664 21.8991 13.0488 22.0073 13.09 22.1309L11.7197 22.5894L10.7821 22.234C10.7255 22.2134 10.6585 22.2391 10.6327 22.2906L10.2206 23.0943L8.65454 23.6197C9.08727 22.6306 9.41181 21.9918 9.57666 21.8064C9.92697 21.4097 10.3442 21.2346 10.3494 21.2346C10.3545 21.2346 10.3545 21.2294 10.3545 21.2294H10.3597C10.3648 21.2243 10.8388 20.9718 11.3436 21.0646C11.5909 21.1058 12.1215 21.3788 12.853 21.827ZM13.2755 22.3267L13.7494 22.167L13.9658 22.8109L14.0121 22.95L2.68393 26.757L2.42121 25.974L3.55969 25.5927L3.80696 25.5103L11.7558 22.8418L13.2755 22.3267ZM14.0121 22.1824L15.1867 22.4709L15.3721 23.0221L14.6097 23.9597L14.1821 22.6924L14.0121 22.1824ZM12.683 24.717C12.3585 24.5109 11.8485 24.4337 11.6218 24.6449C11.5497 24.717 11.4415 24.8561 11.2921 25.0467C11.2458 25.1034 11.1994 25.1703 11.1479 25.2321L4.90939 27.3288L3.10121 27.9367L3.08575 27.9418L2.75605 26.9682L14.0842 23.1664L14.4139 24.1452L12.683 24.717ZM10.8697 25.5824C10.5555 25.9585 10.1073 26.4273 9.79303 26.4221C9.74666 26.4221 9.61787 26.3449 9.40151 26.077L10.8697 25.5824ZM10.5503 22.9861L10.7976 22.5018L11.3539 22.7131L10.5503 22.9861ZM9.39121 21.6467C9.14909 21.9197 8.6906 22.9191 8.3403 23.7227L6.88242 24.2121C7.20696 23.4137 7.75818 22.1567 8.01575 21.8682C8.36606 21.4715 8.73181 21.2706 8.73696 21.2655H8.74212C8.74727 21.2655 8.74727 21.2603 8.74727 21.2603C8.75242 21.2552 8.75757 21.2552 8.75757 21.25L8.76272 21.2449C8.76787 21.2397 8.76787 21.2346 8.77303 21.2346C8.77303 21.2294 9.01 20.91 9.34484 20.9203C9.56636 20.9306 9.84454 21.0388 10.03 21.1264C9.86515 21.2243 9.61787 21.3943 9.39121 21.6467ZM7.83545 21.7085C7.47999 22.1103 6.71757 23.9752 6.58363 24.3152L5.53787 24.6655C5.65636 23.9649 5.93454 22.5688 6.19727 22.27C6.54242 21.8837 6.84121 21.7703 6.84636 21.7652C6.85151 21.7652 6.85151 21.76 6.85666 21.76C6.85666 21.76 6.86181 21.76 6.86181 21.7549C6.87212 21.7497 6.88242 21.7446 6.88757 21.7343C7.07302 21.554 7.62424 21.0852 7.92818 21.0594C8.12909 21.044 8.30939 21.1006 8.43818 21.1573C8.28878 21.2758 8.06212 21.4509 7.83545 21.7085ZM7.86636 20.6318C7.87151 20.6988 7.87666 20.7606 7.88181 20.8276C7.57272 20.8688 7.1709 21.1676 6.92878 21.3737L6.93909 20.4876C7.08333 20.3846 7.49545 20.0909 7.75303 19.7818C7.77878 19.7509 7.79939 19.72 7.82515 19.684C7.83545 20.0085 7.84575 20.3279 7.86636 20.6318ZM3.79666 25.1137L4.01302 24.5573L4.90939 22.3473C4.91454 22.337 4.91454 22.3267 4.91969 22.3112C5.02272 21.2346 5.25969 19.5243 5.4709 19.2255C5.74393 18.8391 7.20696 18.2261 7.61393 18.2261C7.65515 18.2261 7.6809 18.2312 7.70151 18.2415C7.75818 18.2931 7.79424 18.4012 7.80969 18.5352V18.8958C7.78393 19.174 7.70151 19.4624 7.56757 19.6273C7.27909 19.9724 6.75878 20.3176 6.75363 20.3227C6.71757 20.3485 6.69696 20.3846 6.69696 20.4258L6.68151 21.5746C6.55272 21.6364 6.29515 21.7909 6.01181 22.1103C5.64606 22.5276 5.33696 24.377 5.27515 24.7582L4.05424 25.1703L3.73484 25.2785C3.75545 25.2167 3.77605 25.1652 3.79666 25.1137ZM1.33939 27.9109L1.04575 27.0455C0.958176 26.7879 1.06636 26.4994 1.29818 26.3603C1.33424 26.3397 1.37545 26.3191 1.41151 26.3088L2.18939 26.0461L2.84878 28.014L2.0709 28.2767C1.95242 28.3179 1.82878 28.3179 1.71545 28.2818C1.5403 28.2303 1.39605 28.0912 1.33939 27.9109ZM8.66999 30.3218C8.64424 30.3218 8.61848 30.3218 8.58757 30.3218C7.04727 30.2909 5.49666 29.6934 4.25515 28.8021C3.96666 28.5961 3.68848 28.3694 3.42575 28.1427C3.4103 28.1273 3.39484 28.117 3.37939 28.1015L4.39424 27.7615L4.92999 27.5812C5.89333 28.3231 7.36151 29.07 9.15939 28.7403H9.16969C9.21606 28.73 9.26757 28.7197 9.31909 28.7094C9.33454 28.7043 9.35515 28.7043 9.3706 28.6991C9.39121 28.694 9.41181 28.6888 9.43757 28.6837L8.66999 30.3218ZM12.7345 25.1806C12.6573 25.5721 11.2715 27.5967 10.5812 28.014C10.5451 28.0397 10.3803 28.0964 9.69515 28.1376C8.96363 28.184 8.05696 28.184 7.95909 28.184C7.95393 28.184 7.94878 28.184 7.94878 28.184C7.90242 28.184 7.86121 28.2097 7.8406 28.2509L7.70666 28.5291C6.69696 28.4003 5.84181 27.947 5.20303 27.4731L8.63393 26.3191H8.63909L9.15939 26.144C9.5406 26.6437 9.72606 26.6488 9.78787 26.654H9.80333C10.2773 26.654 10.8388 26.0203 11.323 25.397C11.3848 25.3197 11.4415 25.2476 11.493 25.1806C11.6218 25.0106 11.7351 24.8664 11.797 24.8097C11.9206 24.6912 12.3585 24.7582 12.6006 24.9385C12.6573 24.9952 12.7551 25.0827 12.7345 25.1806ZM14.6045 24.3255C14.6148 24.3203 14.62 24.3203 14.6251 24.3152C14.6251 24.3152 14.6303 24.3152 14.6303 24.31C14.6355 24.3049 14.6406 24.3049 14.6458 24.2997L14.6509 24.2946C14.6561 24.2894 14.6561 24.2894 14.6612 24.2843L16.0264 22.6049C16.0521 22.574 16.0624 22.5276 16.047 22.4915C16.0315 22.4503 16.0006 22.4194 15.9594 22.4143L13.8576 21.894H13.8524C13.8421 21.894 13.837 21.894 13.8267 21.8888C13.8215 21.8888 13.8215 21.8888 13.8164 21.8888C13.8061 21.8888 13.8009 21.8888 13.7906 21.894H13.7855L13.3218 22.0485C13.2651 21.8682 13.1467 21.7137 12.9818 21.6158C12.9406 21.59 12.9045 21.5694 12.8633 21.5437H16.3818C16.4488 21.5437 16.5055 21.487 16.5055 21.42C16.5055 21.3531 16.4488 21.2964 16.3818 21.2964H12.8479C12.7809 21.2964 12.7242 21.3531 12.7242 21.42C12.7242 21.4355 12.7294 21.4509 12.7345 21.4612C12.0906 21.08 11.6424 20.8585 11.3951 20.8173C10.9109 20.7297 10.4679 20.9049 10.3082 20.977C10.1536 20.8946 9.71575 20.6782 9.3603 20.6627C9.02545 20.6524 8.77302 20.8637 8.65454 20.9924C8.54636 20.9358 8.35575 20.8482 8.12909 20.8224C8.12393 20.7503 8.11363 20.6782 8.10848 20.6112C8.07757 20.0755 8.05696 19.5088 8.05181 18.9215C8.06727 18.7773 8.06727 18.6382 8.05181 18.5094C8.05696 15.434 8.41242 11.6167 9.13363 6.92881C9.19545 6.92366 27.6945 6.44972 28.2561 6.44972H28.2767H28.4261C30.327 6.44972 31.6612 6.46002 32.0424 6.46517C32.1661 6.46517 32.1918 8.94305 32.197 9.13881C32.2124 9.76729 32.233 10.3906 32.233 11.0191V11.0294C32.2485 14.0018 32.0373 16.8712 31.6045 19.617C31.5994 19.6376 31.5994 19.6582 31.5942 19.6788C31.5479 19.9518 31.5067 20.2249 31.4551 20.4979C31.45 20.5134 31.45 20.5288 31.4448 20.5494C31.4345 20.6164 31.4191 20.6885 31.4088 20.7555C31.3676 20.977 31.3264 21.1934 31.2851 21.4097C31.2594 21.554 31.2285 21.6931 31.1976 21.8373C30.7906 23.7949 29.24 25.1394 27.5091 25.0364H27.4679L14.177 24.4749L14.6045 24.3255Z" fill="white"/>
<path d="M18.0509 16.6291C18.5454 16.6291 18.9576 16.2788 19.0091 15.8203L19.6942 9.43758C19.7509 8.90697 19.3027 8.44849 18.7361 8.44849H11.1891C10.6945 8.44849 10.2824 8.79879 10.2309 9.25727L9.54575 15.64C9.48909 16.1706 9.93212 16.6291 10.5039 16.6291H18.0509ZM10.7048 15.1815L11.2818 9.79818C11.3127 9.50455 11.6167 9.28303 11.9876 9.28303H17.8242C18.2364 9.28303 18.5661 9.56636 18.53 9.89606L17.953 15.2794C17.9221 15.5679 17.613 15.7945 17.2473 15.7945H11.4106C10.9985 15.7945 10.6688 15.5112 10.7048 15.1815Z" fill="white"/>
<path d="M12.2194 14.7592C12.2451 14.7849 12.2761 14.8004 12.307 14.8004C12.3379 14.8004 12.3636 14.7901 12.3894 14.7695L14.6251 12.7089L16.8609 14.7695C16.8867 14.7901 16.9124 14.8004 16.9433 14.8004C16.9742 14.8004 17.0103 14.7849 17.0309 14.7592C17.0773 14.7076 17.0721 14.6304 17.0258 14.5892L14.8055 12.544L17.0258 10.4989C17.0773 10.4525 17.0773 10.3752 17.0309 10.3289C16.9845 10.2773 16.9073 10.2773 16.8609 10.3237L14.6251 12.3843L12.3894 10.3237C12.3379 10.2773 12.2606 10.2825 12.2194 10.3289C12.173 10.3804 12.1782 10.4576 12.2245 10.4989L14.4448 12.544L12.2245 14.5892C12.1782 14.6304 12.173 14.7076 12.2194 14.7592Z" fill="white"/>
<path d="M21.5436 11.9773L29.5233 12.0701C29.9303 12.0752 30.2806 11.7764 30.3424 11.3694L30.5485 9.98369C30.6206 9.50975 30.26 9.08732 29.7757 9.08217L21.7961 8.98945C21.3891 8.98429 21.0388 9.28308 20.977 9.69005L20.7709 11.0758C20.7039 11.5497 21.0645 11.9722 21.5436 11.9773Z" fill="white"/>
<path d="M20.5906 13.7648L30.1106 13.7185C30.1776 13.7185 30.2342 13.6618 30.2342 13.5948C30.2342 13.5279 30.1776 13.4712 30.1106 13.4712L20.5906 13.5176C20.5236 13.5176 20.467 13.5742 20.467 13.6412C20.467 13.7082 20.5236 13.7648 20.5906 13.7648Z" fill="white"/>
<path d="M20.4103 15.1609L29.9303 15.1146C29.9973 15.1146 30.0539 15.0579 30.0539 14.9909C30.0539 14.924 29.9973 14.8673 29.9303 14.8673L20.4103 14.9137C20.3433 14.9137 20.2867 14.9703 20.2867 15.0373C20.2918 15.1094 20.3433 15.1609 20.4103 15.1609Z" fill="white"/>
<path d="M25.1703 16.2891C25.1033 16.2891 25.0467 16.3458 25.0467 16.4128C25.0467 16.4797 25.1033 16.5364 25.1703 16.5364L27.9109 16.521C27.9779 16.521 28.0345 16.4643 28.0345 16.3973C28.0345 16.3303 27.9779 16.2737 27.9109 16.2737L25.1703 16.2891Z" fill="white"/>
<path d="M20.2351 16.5622L23.6661 16.5467C23.733 16.5467 23.7897 16.49 23.7897 16.4231C23.7897 16.3561 23.733 16.2994 23.6661 16.2994L20.2351 16.3149C20.1682 16.3149 20.1115 16.3716 20.1115 16.4385C20.1167 16.5055 20.1682 16.5622 20.2351 16.5622Z" fill="white"/>
<path d="M28.0706 22.8573H28.1015C28.6115 22.8573 29.0339 22.4349 29.0751 21.8786L29.2606 19.0864C29.2812 18.767 29.173 18.458 28.9618 18.2416C28.7712 18.0458 28.5239 17.9377 28.2561 17.9428L18.3291 18.1643C17.9067 18.1746 17.5667 18.5661 17.5358 19.071L17.3967 21.4922C17.3812 21.791 17.4739 22.0795 17.6645 22.2855C17.8088 22.4452 17.9942 22.5328 18.19 22.538L28.0706 22.8573ZM17.8397 22.1207C17.7006 21.9661 17.6233 21.7395 17.6388 21.5077L17.7779 19.0864C17.7985 18.7155 18.0458 18.4167 18.3342 18.4116L28.2612 18.1901C28.457 18.1849 28.6424 18.2673 28.7867 18.4116C28.9515 18.5816 29.0339 18.8237 29.0185 19.0761L28.833 21.8683C28.8021 22.301 28.4724 22.6307 28.0861 22.6204L18.1951 22.3061C18.0251 22.2907 17.9067 22.198 17.8397 22.1207Z" fill="white"/>
<path d="M19.0503 19.0658L22.8985 20.3949L19.0555 21.6364C18.9936 21.657 18.9576 21.7239 18.9782 21.7909C18.9936 21.8424 19.0452 21.8733 19.0967 21.8733C19.107 21.8733 19.1224 21.8733 19.1327 21.8682L23.2848 20.5236L27.437 21.9558C27.4524 21.9609 27.4627 21.9609 27.4782 21.9609C27.5297 21.9609 27.5761 21.93 27.5915 21.8785C27.6121 21.8167 27.5812 21.7446 27.5142 21.7239L23.6661 20.3949L27.5091 19.1533C27.5709 19.1327 27.607 19.0658 27.5864 18.9988C27.5658 18.937 27.4988 18.9009 27.4318 18.9215L23.2797 20.2661L19.1276 18.8339C19.0658 18.8133 18.9936 18.8443 18.973 18.9112C18.9524 18.9782 18.9885 19.0452 19.0503 19.0658Z" fill="white"/>
<path d="M16.6651 18.8289H10.4215C10.3545 18.8289 10.2979 18.8855 10.2979 18.9525C10.2979 19.0195 10.3545 19.0761 10.4215 19.0761H16.6651C16.7321 19.0761 16.7888 19.0195 16.7888 18.9525C16.7888 18.8855 16.7321 18.8289 16.6651 18.8289Z" fill="white"/>
<path d="M16.5209 20.0652H10.2773C10.2103 20.0652 10.1536 20.1219 10.1536 20.1888C10.1536 20.2558 10.2103 20.3125 10.2773 20.3125H16.5209C16.5879 20.3125 16.6445 20.2558 16.6445 20.1888C16.6445 20.1219 16.5879 20.0652 16.5209 20.0652Z" fill="white"/>
<path d="M3.81727 5.41427L7.1503 5.86245C7.19151 5.8676 7.23272 5.87276 7.26878 5.87276C7.71181 5.87276 8.09818 5.54306 8.16 5.09488L8.51545 2.4367C8.58242 1.9473 8.23727 1.48882 7.74272 1.427L4.41485 0.968514C3.9203 0.901544 3.46697 1.2467 3.40515 1.74124L3.04454 4.40457C2.97757 4.89397 3.32788 5.3473 3.81727 5.41427ZM3.28666 4.43548L3.64212 1.7773C3.68848 1.4476 3.96666 1.21063 4.29121 1.21063C4.32212 1.21063 4.34788 1.21063 4.37878 1.21579L7.71181 1.66397C8.07242 1.71033 8.32484 2.04518 8.27333 2.40063L7.91788 5.05882C7.87151 5.41942 7.53666 5.67185 7.18121 5.62033L3.84818 5.17215C3.49272 5.12579 3.2403 4.79094 3.28666 4.43548Z" fill="white"/>
<path d="M4.48696 2.94151L5.93969 3.13726C6.10969 3.15787 6.26424 3.03939 6.28999 2.86939C6.3106 2.69939 6.19212 2.54484 6.02212 2.51908L4.56939 2.32848C4.39939 2.30272 4.24484 2.42636 4.22424 2.5912C4.19848 2.7612 4.31696 2.9209 4.48696 2.94151Z" fill="white"/>
<path d="M4.32727 4.147L7.00091 4.5076C7.17091 4.52821 7.32546 4.40972 7.35121 4.23972C7.37182 4.06972 7.25333 3.91518 7.08333 3.88942L4.4097 3.52882C4.2397 3.50821 4.08 3.62669 4.05939 3.79669C4.03879 3.96669 4.15727 4.12124 4.32727 4.147Z" fill="white"/>
<path d="M3.0497 11.1273L6.38273 11.5755C6.42394 11.5806 6.46515 11.5858 6.50121 11.5858C6.94424 11.5858 7.33061 11.2561 7.39242 10.8079L7.74788 8.14974C7.81485 7.66034 7.4697 7.20186 6.97515 7.14004L3.64212 6.69186C3.40515 6.66095 3.16818 6.72277 2.97758 6.86701C2.78697 7.01125 2.66333 7.22246 2.63242 7.46459L2.27697 10.1228C2.21 10.607 2.55515 11.0655 3.0497 11.1273ZM2.51909 10.1485L2.87455 7.49034C2.9003 7.31519 2.98788 7.16065 3.12697 7.05762C3.2403 6.97004 3.37939 6.92368 3.52364 6.92368C3.55455 6.92368 3.5803 6.92368 3.61121 6.92883L6.94424 7.37701C7.30485 7.42337 7.55727 7.75822 7.50576 8.11368L7.1503 10.7719C7.12455 10.947 7.03697 11.1016 6.89788 11.2046C6.75879 11.3128 6.58879 11.354 6.41364 11.3334L3.08061 10.8852C2.72515 10.8388 2.47273 10.5091 2.51909 10.1485Z" fill="white"/>
<path d="M4.26029 8.38159C4.36332 8.41765 4.50757 8.44856 4.69302 8.46402L4.85787 8.47947L4.65181 9.33462C4.57969 9.62826 4.53847 9.80341 4.52817 9.86523C4.51787 9.92705 4.49726 9.97856 4.47666 10.0301C4.45605 10.0713 4.44575 10.1022 4.44575 10.1177C4.4406 10.164 4.4509 10.2104 4.48181 10.2464C4.51272 10.2877 4.55393 10.3083 4.6106 10.3134C4.66726 10.3186 4.72908 10.298 4.8012 10.2413C4.87332 10.1846 4.92484 10.0661 4.9609 9.87553C4.97635 9.79826 4.98666 9.74674 4.99696 9.72614C5.02787 9.62311 5.07423 9.44796 5.1309 9.20583L5.29575 8.51038L5.37817 8.52068L6.02726 8.61341C6.08908 8.62371 6.14575 8.60311 6.20241 8.5619C6.25908 8.52068 6.28999 8.46402 6.30029 8.4022C6.30544 8.35583 6.30029 8.31977 6.27454 8.28886C6.25393 8.25796 6.22817 8.23735 6.20757 8.2322C6.18696 8.22705 6.13544 8.21674 6.05302 8.20644L5.57908 8.13432C5.51211 8.12402 5.39363 8.11371 5.21332 8.10341C5.03302 8.08796 4.90423 8.07765 4.82696 8.06735L4.40454 7.98493C4.33241 7.97462 4.26544 7.99523 4.21393 8.03644C4.16241 8.0828 4.1315 8.13947 4.1212 8.20129C4.1109 8.28371 4.15726 8.34553 4.26029 8.38159Z" fill="white"/>
<path d="M2.24606 17.0824L5.57909 17.5306C5.6203 17.5358 5.66152 17.5409 5.69758 17.5409C6.14061 17.5409 6.52697 17.2112 6.58879 16.763L6.94424 14.1049C7.01121 13.6155 6.66606 13.157 6.17151 13.0952L2.83849 12.647C2.34909 12.58 1.89061 12.9252 1.82879 13.4197L1.47333 16.0779C1.41152 16.5621 1.75667 17.0155 2.24606 17.0824ZM1.71545 16.1036L2.07091 13.4455C2.11727 13.1158 2.39545 12.8788 2.72 12.8788C2.75091 12.8788 2.77667 12.8788 2.80758 12.884L6.14061 13.3321C6.50121 13.3785 6.75364 13.7133 6.70212 14.0688L6.34667 16.727C6.3003 17.0876 5.96545 17.34 5.61 17.2885L2.27697 16.8403C1.92152 16.7888 1.66909 16.4591 1.71545 16.1036Z" fill="white"/>
<path d="M2.37999 16.1913C2.43665 16.2273 2.51393 16.2067 2.54484 16.15C2.73029 15.8358 2.96211 15.537 3.04968 15.4907C3.11665 15.5319 3.25574 15.7225 3.32271 15.8204C3.35877 15.8719 3.39484 15.9234 3.42574 15.9646C3.47726 16.0316 3.55453 16.0676 3.63696 16.0676C3.72453 16.0625 3.80696 16.011 3.85847 15.9285C4.18302 15.4082 4.44059 15.1764 4.55393 15.1764H4.55908C4.77029 15.1919 5.29059 15.8204 5.59968 16.2634C5.62544 16.2994 5.6615 16.3149 5.69756 16.3149C5.72332 16.3149 5.74393 16.3097 5.76453 16.2943C5.8212 16.2582 5.8315 16.181 5.79544 16.1243C5.66665 15.9234 4.9815 14.96 4.58484 14.924C4.33756 14.9034 4.02332 15.197 3.65756 15.7894C3.64726 15.81 3.63696 15.81 3.63181 15.81C3.63181 15.81 3.62665 15.81 3.62665 15.8049C3.59574 15.7637 3.56484 15.7173 3.52877 15.671C3.33302 15.3979 3.20423 15.2331 3.05484 15.2382C2.84877 15.2434 2.55514 15.671 2.34393 16.0213C2.30271 16.0831 2.32332 16.1552 2.37999 16.1913Z" fill="white"/>
<path d="M3.69878 15.0424C3.90484 15.0682 4.09545 14.9239 4.1212 14.7179C4.14696 14.5118 4.00272 14.3212 3.79666 14.2955C3.5906 14.2697 3.39999 14.4139 3.37423 14.62C3.34332 14.8261 3.49272 15.0167 3.69878 15.0424Z" fill="white"/>
<path d="M22.2494 28.3952L21.1779 28.2149C21.1521 28.1376 21.1161 28.0604 21.08 27.9831L21.7085 27.1022C21.8064 26.9682 21.7909 26.7828 21.6724 26.6694L21.25 26.247C21.1315 26.1285 20.9512 26.1131 20.8173 26.211L19.9312 26.8394C19.8539 26.8034 19.7767 26.7725 19.6994 26.7416L19.5191 25.6701C19.4933 25.5052 19.3542 25.3867 19.1894 25.3867H18.5918C18.427 25.3867 18.2879 25.5052 18.2621 25.6649L18.0818 26.7364C18.0045 26.7622 17.9273 26.7982 17.85 26.8343L16.9691 26.2058C16.8351 26.1079 16.6497 26.1234 16.5364 26.2419L16.1139 26.6643C15.9954 26.7828 15.98 26.9631 16.0779 27.097L16.7064 27.9831C16.6703 28.0604 16.6394 28.1376 16.6085 28.2149L15.537 28.3952C15.3721 28.421 15.2536 28.5601 15.2536 28.7249V29.3225C15.2536 29.4873 15.3721 29.6264 15.5318 29.6522L16.6033 29.8325C16.6291 29.9097 16.6651 29.987 16.7012 30.0643L16.0727 30.9452C15.9748 31.0791 15.9903 31.2646 16.1088 31.3779L16.5312 31.8004C16.6497 31.9188 16.83 31.9343 16.9639 31.8364L17.85 31.2079C17.9273 31.244 18.0045 31.2749 18.0818 31.3058L18.2621 32.3773C18.2879 32.5422 18.427 32.6607 18.5918 32.6607H19.1894C19.3542 32.6607 19.4933 32.5422 19.5191 32.3825L19.6994 31.311C19.7767 31.2852 19.8539 31.2491 19.9312 31.2131L20.8121 31.8416C20.9461 31.9394 21.1315 31.924 21.2448 31.8055L21.6673 31.3831C21.7858 31.2646 21.8012 31.0843 21.7033 30.9504L21.0748 30.0643C21.1109 29.987 21.1418 29.9097 21.1727 29.8325L22.2442 29.6522C22.4091 29.6264 22.5276 29.4873 22.5276 29.3225V28.7249C22.5327 28.5652 22.4142 28.4261 22.2494 28.3952ZM19.9054 30.0282C19.3491 30.5846 18.4527 30.5794 17.8964 30.0282C17.34 29.4719 17.3451 28.5755 17.8964 28.0191C18.4527 27.4628 19.3491 27.4679 19.9054 28.0191C20.4567 28.5755 20.4567 29.4719 19.9054 30.0282Z" fill="white"/>
</g>
<defs>
<clipPath id="clip0_18_860">
<rect width="34" height="34" fill="white"/>
</clipPath>
</defs>
</svg>
