<svg width="34" height="34" viewBox="0 0 34 34" fill="none" xmlns="http://www.w3.org/2000/svg">
<path fill-rule="evenodd" clip-rule="evenodd" d="M0.354172 26.9167V7.08337C0.354172 4.14946 2.73276 1.77087 5.66667 1.77087H28.3333C31.2673 1.77087 33.6458 4.14946 33.6458 7.08337V26.9167C33.6458 29.8506 31.2673 32.2292 28.3333 32.2292H5.66667C4.25709 32.2292 2.90701 31.6696 1.90967 30.6737C0.913755 29.6764 0.354172 28.3263 0.354172 26.9167ZM2.47917 12.3959V26.9167C2.47917 27.7625 2.81492 28.5728 3.41276 29.1706C4.01059 29.7685 4.82092 30.1042 5.66667 30.1042H28.3333C30.0943 30.1042 31.5208 28.6776 31.5208 26.9167V12.3959H2.47917ZM15.5833 5.66671C14.8013 5.66671 14.1667 6.30137 14.1667 7.08337C14.1667 7.86537 14.8013 8.50004 15.5833 8.50004C16.3653 8.50004 17 7.86537 17 7.08337C17 6.30137 16.3653 5.66671 15.5833 5.66671ZM11.3333 5.66671C10.5513 5.66671 9.91667 6.30137 9.91667 7.08337C9.91667 7.86537 10.5513 8.50004 11.3333 8.50004C12.1153 8.50004 12.75 7.86537 12.75 7.08337C12.75 6.30137 12.1153 5.66671 11.3333 5.66671ZM7.08334 5.66671C6.30134 5.66671 5.66667 6.30137 5.66667 7.08337C5.66667 7.86537 6.30134 8.50004 7.08334 8.50004C7.86534 8.50004 8.50001 7.86537 8.50001 7.08337C8.50001 6.30137 7.86534 5.66671 7.08334 5.66671Z" fill="white"/>
<path fill-rule="evenodd" clip-rule="evenodd" d="M12.3958 23.0209C12.7713 23.0209 13.1325 22.8722 13.3974 22.6058C13.6638 22.3409 13.8125 21.9797 13.8125 21.6042V18.4167C13.8125 17.8302 14.2885 17.3542 14.875 17.3542C15.4615 17.3542 15.9375 17.8302 15.9375 18.4167V21.6042C15.9375 22.5435 15.5649 23.4445 14.9005 24.1089C14.2361 24.7733 13.3351 25.1459 12.3958 25.1459C11.4566 25.1459 10.5556 24.7733 9.89117 24.1089C9.22675 23.4445 8.85417 22.5435 8.85417 21.6042V18.4167C8.85417 17.8302 9.33017 17.3542 9.91667 17.3542C10.5032 17.3542 10.9792 17.8302 10.9792 18.4167V21.6042C10.9792 21.9797 11.1279 22.3409 11.3943 22.6058C11.6592 22.8722 12.0204 23.0209 12.3958 23.0209Z" fill="white"/>
<path fill-rule="evenodd" clip-rule="evenodd" d="M17.6658 19.1676C17.2508 18.7539 17.2508 18.0796 17.6658 17.6659C18.0795 17.2508 18.7538 17.2508 19.1675 17.6659L24.8342 23.3326C25.2493 23.7463 25.2493 24.4206 24.8342 24.8343C24.4205 25.2493 23.7462 25.2493 23.3325 24.8343L17.6658 19.1676Z" fill="white"/>
<path fill-rule="evenodd" clip-rule="evenodd" d="M23.3325 17.6659C23.7462 17.2508 24.4205 17.2508 24.8342 17.6659C25.2493 18.0796 25.2493 18.7539 24.8342 19.1676L19.1675 24.8343C18.7538 25.2493 18.0795 25.2493 17.6658 24.8343C17.2508 24.4206 17.2508 23.7463 17.6658 23.3326L23.3325 17.6659Z" fill="white"/>
</svg>
